# xmcd
#
# Track frame offsets: 
#        150
#        12600
#        27453
#        36835
#        43660
#        61960
#        75085
#        84833
#        102758
#        115433
#        125035
#        130135
#        155483
#
# Disc length: 2280 seconds
#
# Revision: 2
# Processed by: cddbd v1.5.2PL0 Copyright (c) Steve Scherf et al.
# Submitted via: ExactAudioCopy v1.0b1
#
DISCID=a208e60d
DTITLE=Mississippi John Hurt - The Immortal Mississippi John Hurt
DYEAR=1990
DGENRE=Blues
TTITLE0=Since I've Laid My Burden Down
TTITLE1=Moaning The Blues
TTITLE2=Stocktime (Buck Dance)
TTITLE3=Lazy Blues
TTITLE4=Richland Woman Blues
TTITLE5=Wise And Foolish Virgins (Tender Virgins)
TTITLE6=Hop Joint
TTITLE7=Monday Morning Blues
TTITLE8=I've Got The Blues And I Can't Be Satisfied
TTITLE9=Keep On Knocking
TTITLE10=The Chicken
TTITLE11=Stagolee
TTITLE12=Nearer My God To Thee
EXTD=Production supervised by Patrick Sky\nMississippi John Hurt accom
EXTD=panying himself on the guitar\nAll Songs by Mississippi John Hurt
EXTD=Wynwood Music - BMI, except where noted\n
EXTT0=(Traditional) - Public Domain
EXTT1=(Traditional) - Pat Sky, 2nd guitar
EXTT2=
EXTT3=
EXTT4=
EXTT5=
EXTT6=
EXTT7=Pat Sky, 2nd guitar
EXTT8=
EXTT9=
EXTT10=
EXTT11=
EXTT12=(Traditional) - Public Domain
PLAYORDER=
